<mxfile host="app.diagrams.net" modified="2023-07-26T13:20:55.045Z" agent="Mozilla/5.0 (X11; Linux x86_64) AppleWebKit/537.36 (KHTML, like Gecko) Chrome/115.0.0.0 Safari/537.36" etag="giX3WkN4YmC5pM1bzzxx" version="21.6.5" type="github">
  <diagram name="Seite-1" id="wlJV-xqVucs6HPZI-wY-">
    <mxGraphModel dx="3936" dy="1255" grid="1" gridSize="10" guides="1" tooltips="1" connect="1" arrows="1" fold="1" page="1" pageScale="1" pageWidth="827" pageHeight="1169" math="0" shadow="0">
      <root>
        <mxCell id="0" />
        <mxCell id="1" parent="0" />
        <mxCell id="TeA0gqDEE4ePr5C79fon-6" value="Topic" style="ellipse;whiteSpace=wrap;html=1;align=center;newEdgeStyle={&quot;edgeStyle&quot;:&quot;entityRelationEdgeStyle&quot;,&quot;startArrow&quot;:&quot;none&quot;,&quot;endArrow&quot;:&quot;none&quot;,&quot;segment&quot;:10,&quot;curved&quot;:1,&quot;sourcePerimeterSpacing&quot;:0,&quot;targetPerimeterSpacing&quot;:0};treeFolding=1;treeMoving=1;fillColor=#dae8fc;strokeColor=#6c8ebf;fontSize=25;" vertex="1" collapsed="1" parent="1">
          <mxGeometry x="470" y="480" width="110" height="70" as="geometry" />
        </mxCell>
        <mxCell id="TeA0gqDEE4ePr5C79fon-7" value="Graph Neural Networks" style="whiteSpace=wrap;html=1;rounded=1;arcSize=50;align=center;verticalAlign=middle;strokeWidth=1;autosize=1;spacing=4;treeFolding=1;treeMoving=1;newEdgeStyle={&quot;edgeStyle&quot;:&quot;entityRelationEdgeStyle&quot;,&quot;startArrow&quot;:&quot;none&quot;,&quot;endArrow&quot;:&quot;none&quot;,&quot;segment&quot;:10,&quot;curved&quot;:1,&quot;sourcePerimeterSpacing&quot;:0,&quot;targetPerimeterSpacing&quot;:0};fillColor=#ffe6cc;strokeColor=#d79b00;" vertex="1" parent="1">
          <mxGeometry x="810" y="240" width="195" height="40" as="geometry" />
        </mxCell>
        <mxCell id="TeA0gqDEE4ePr5C79fon-8" value="" style="edgeStyle=entityRelationEdgeStyle;startArrow=none;endArrow=none;segment=10;curved=1;sourcePerimeterSpacing=0;targetPerimeterSpacing=0;rounded=0;" edge="1" target="TeA0gqDEE4ePr5C79fon-7" parent="1" source="TeA0gqDEE4ePr5C79fon-6">
          <mxGeometry relative="1" as="geometry">
            <mxPoint x="510" y="542" as="sourcePoint" />
            <Array as="points">
              <mxPoint x="530" y="480" />
            </Array>
          </mxGeometry>
        </mxCell>
        <mxCell id="TeA0gqDEE4ePr5C79fon-9" value="Ressources" style="whiteSpace=wrap;html=1;shape=partialRectangle;top=0;left=0;bottom=1;right=0;points=[[0,1],[1,1]];fillColor=none;align=center;verticalAlign=bottom;routingCenterY=0.5;snapToPoint=1;recursiveResize=0;autosize=1;treeFolding=1;treeMoving=1;newEdgeStyle={&quot;edgeStyle&quot;:&quot;entityRelationEdgeStyle&quot;,&quot;startArrow&quot;:&quot;none&quot;,&quot;endArrow&quot;:&quot;none&quot;,&quot;segment&quot;:10,&quot;curved&quot;:1,&quot;sourcePerimeterSpacing&quot;:0,&quot;targetPerimeterSpacing&quot;:0};" vertex="1" parent="1">
          <mxGeometry x="940" y="530" width="100" height="30" as="geometry" />
        </mxCell>
        <mxCell id="TeA0gqDEE4ePr5C79fon-10" value="" style="edgeStyle=entityRelationEdgeStyle;startArrow=none;endArrow=none;segment=10;curved=1;sourcePerimeterSpacing=0;targetPerimeterSpacing=0;rounded=0;exitX=0.459;exitY=0.993;exitDx=0;exitDy=0;exitPerimeter=0;" edge="1" target="TeA0gqDEE4ePr5C79fon-9" parent="1" source="TeA0gqDEE4ePr5C79fon-7">
          <mxGeometry relative="1" as="geometry">
            <mxPoint x="847.5" y="440" as="sourcePoint" />
          </mxGeometry>
        </mxCell>
        <mxCell id="TeA0gqDEE4ePr5C79fon-11" value="Understanding GNNs" style="whiteSpace=wrap;html=1;shape=partialRectangle;top=0;left=0;bottom=1;right=0;points=[[0,1],[1,1]];fillColor=none;align=center;verticalAlign=bottom;routingCenterY=0.5;snapToPoint=1;recursiveResize=0;autosize=1;treeFolding=1;treeMoving=1;newEdgeStyle={&quot;edgeStyle&quot;:&quot;entityRelationEdgeStyle&quot;,&quot;startArrow&quot;:&quot;none&quot;,&quot;endArrow&quot;:&quot;none&quot;,&quot;segment&quot;:10,&quot;curved&quot;:1,&quot;sourcePerimeterSpacing&quot;:0,&quot;targetPerimeterSpacing&quot;:0};" vertex="1" parent="1">
          <mxGeometry x="1120" y="680" width="160" height="30" as="geometry" />
        </mxCell>
        <mxCell id="TeA0gqDEE4ePr5C79fon-12" value="" style="edgeStyle=entityRelationEdgeStyle;startArrow=none;endArrow=none;segment=10;curved=1;sourcePerimeterSpacing=0;targetPerimeterSpacing=0;rounded=0;" edge="1" target="TeA0gqDEE4ePr5C79fon-11" parent="1" source="TeA0gqDEE4ePr5C79fon-9">
          <mxGeometry relative="1" as="geometry">
            <mxPoint x="980" y="510" as="sourcePoint" />
            <Array as="points">
              <mxPoint x="1090" y="550" />
            </Array>
          </mxGeometry>
        </mxCell>
        <UserObject label="" link="https://distill.pub/2021/understanding-gnns/" id="TeA0gqDEE4ePr5C79fon-13">
          <mxCell style="html=1;verticalLabelPosition=bottom;align=center;labelBackgroundColor=#ffffff;verticalAlign=top;strokeWidth=2;strokeColor=#0080F0;shadow=0;dashed=0;shape=mxgraph.ios7.icons.link;" vertex="1" parent="1">
            <mxGeometry x="1260" y="680" width="30" height="30" as="geometry" />
          </mxCell>
        </UserObject>
        <mxCell id="TeA0gqDEE4ePr5C79fon-14" value="" style="html=1;verticalLabelPosition=bottom;align=center;labelBackgroundColor=#ffffff;verticalAlign=top;strokeWidth=2;strokeColor=#0080F0;shadow=0;dashed=0;shape=mxgraph.ios7.icons.link;" vertex="1" parent="1">
          <mxGeometry x="520" y="590" width="30" height="30" as="geometry" />
        </mxCell>
        <mxCell id="TeA0gqDEE4ePr5C79fon-16" value="Stanford Lecture" style="whiteSpace=wrap;html=1;shape=partialRectangle;top=0;left=0;bottom=1;right=0;points=[[0,1],[1,1]];fillColor=none;align=center;verticalAlign=bottom;routingCenterY=0.5;snapToPoint=1;recursiveResize=0;autosize=1;treeFolding=1;treeMoving=1;newEdgeStyle={&quot;edgeStyle&quot;:&quot;entityRelationEdgeStyle&quot;,&quot;startArrow&quot;:&quot;none&quot;,&quot;endArrow&quot;:&quot;none&quot;,&quot;segment&quot;:10,&quot;curved&quot;:1,&quot;sourcePerimeterSpacing&quot;:0,&quot;targetPerimeterSpacing&quot;:0};" vertex="1" parent="1">
          <mxGeometry x="1120" y="640" width="160" height="30" as="geometry" />
        </mxCell>
        <mxCell id="TeA0gqDEE4ePr5C79fon-17" value="" style="edgeStyle=entityRelationEdgeStyle;startArrow=none;endArrow=none;segment=10;curved=1;sourcePerimeterSpacing=0;targetPerimeterSpacing=0;rounded=0;exitX=1;exitY=1;exitDx=0;exitDy=0;" edge="1" target="TeA0gqDEE4ePr5C79fon-16" parent="1" source="TeA0gqDEE4ePr5C79fon-9">
          <mxGeometry relative="1" as="geometry">
            <mxPoint x="1130" y="540" as="sourcePoint" />
            <Array as="points">
              <mxPoint x="1050" y="550" />
            </Array>
          </mxGeometry>
        </mxCell>
        <UserObject label="" link="https://web.stanford.edu/class/cs224w/" id="TeA0gqDEE4ePr5C79fon-18">
          <mxCell style="html=1;verticalLabelPosition=bottom;align=center;labelBackgroundColor=#ffffff;verticalAlign=top;strokeWidth=2;strokeColor=#0080F0;shadow=0;dashed=0;shape=mxgraph.ios7.icons.link;" vertex="1" parent="1">
            <mxGeometry x="1260" y="640" width="30" height="30" as="geometry" />
          </mxCell>
        </UserObject>
        <UserObject label="" link="data:page/id,wlJV-xqVucs6HPZI-wY-" id="TeA0gqDEE4ePr5C79fon-19">
          <mxCell style="html=1;verticalLabelPosition=bottom;align=center;labelBackgroundColor=#ffffff;verticalAlign=top;strokeWidth=2;strokeColor=#0080F0;shadow=0;dashed=0;shape=mxgraph.ios7.icons.link;" vertex="1" parent="1">
            <mxGeometry x="1290" y="640" width="30" height="30" as="geometry" />
          </mxCell>
        </UserObject>
        <mxCell id="TeA0gqDEE4ePr5C79fon-20" value="GNN-Intro" style="whiteSpace=wrap;html=1;shape=partialRectangle;top=0;left=0;bottom=1;right=0;fillColor=none;align=center;verticalAlign=bottom;routingCenterY=0.5;snapToPoint=1;recursiveResize=0;autosize=1;treeFolding=1;treeMoving=1;newEdgeStyle={&quot;edgeStyle&quot;:&quot;entityRelationEdgeStyle&quot;,&quot;startArrow&quot;:&quot;none&quot;,&quot;endArrow&quot;:&quot;none&quot;,&quot;segment&quot;:10,&quot;curved&quot;:1,&quot;sourcePerimeterSpacing&quot;:0,&quot;targetPerimeterSpacing&quot;:0};points=[[0,1],[1,1]];" vertex="1" parent="1">
          <mxGeometry x="1110" y="560" width="170" height="30" as="geometry" />
        </mxCell>
        <mxCell id="TeA0gqDEE4ePr5C79fon-21" value="" style="edgeStyle=entityRelationEdgeStyle;startArrow=none;endArrow=none;segment=10;curved=1;sourcePerimeterSpacing=0;targetPerimeterSpacing=0;rounded=0;exitX=1;exitY=1;exitDx=0;exitDy=0;" edge="1" target="TeA0gqDEE4ePr5C79fon-20" parent="1" source="TeA0gqDEE4ePr5C79fon-9">
          <mxGeometry relative="1" as="geometry">
            <mxPoint x="430" y="620" as="sourcePoint" />
          </mxGeometry>
        </mxCell>
        <mxCell id="TeA0gqDEE4ePr5C79fon-22" value="Pytorch-Geometric" style="whiteSpace=wrap;html=1;shape=partialRectangle;top=0;left=0;bottom=1;right=0;points=[[0,1],[1,1]];fillColor=none;align=center;verticalAlign=bottom;routingCenterY=0.5;snapToPoint=1;recursiveResize=0;autosize=1;treeFolding=1;treeMoving=1;newEdgeStyle={&quot;edgeStyle&quot;:&quot;entityRelationEdgeStyle&quot;,&quot;startArrow&quot;:&quot;none&quot;,&quot;endArrow&quot;:&quot;none&quot;,&quot;segment&quot;:10,&quot;curved&quot;:1,&quot;sourcePerimeterSpacing&quot;:0,&quot;targetPerimeterSpacing&quot;:0};" vertex="1" parent="1">
          <mxGeometry x="1120" y="600" width="160" height="30" as="geometry" />
        </mxCell>
        <mxCell id="TeA0gqDEE4ePr5C79fon-23" value="" style="edgeStyle=entityRelationEdgeStyle;startArrow=none;endArrow=none;segment=10;curved=1;sourcePerimeterSpacing=0;targetPerimeterSpacing=0;rounded=0;exitX=1;exitY=1;exitDx=0;exitDy=0;" edge="1" target="TeA0gqDEE4ePr5C79fon-22" parent="1" source="TeA0gqDEE4ePr5C79fon-9">
          <mxGeometry relative="1" as="geometry">
            <mxPoint x="430" y="620" as="sourcePoint" />
          </mxGeometry>
        </mxCell>
        <UserObject label="" link="https://pytorch-geometric.readthedocs.io/en/stable/" id="TeA0gqDEE4ePr5C79fon-24">
          <mxCell style="html=1;verticalLabelPosition=bottom;align=center;labelBackgroundColor=#ffffff;verticalAlign=top;strokeWidth=2;strokeColor=#0080F0;shadow=0;dashed=0;shape=mxgraph.ios7.icons.link;" vertex="1" parent="1">
            <mxGeometry x="1260" y="600" width="30" height="30" as="geometry" />
          </mxCell>
        </UserObject>
        <mxCell id="TeA0gqDEE4ePr5C79fon-25" value="" style="html=1;verticalLabelPosition=bottom;align=center;labelBackgroundColor=#ffffff;verticalAlign=top;strokeWidth=2;strokeColor=#0080F0;shadow=0;dashed=0;shape=mxgraph.ios7.icons.link;" vertex="1" parent="1">
          <mxGeometry x="520" y="590" width="30" height="30" as="geometry" />
        </mxCell>
        <mxCell id="TeA0gqDEE4ePr5C79fon-26" value="" style="html=1;verticalLabelPosition=bottom;align=center;labelBackgroundColor=#ffffff;verticalAlign=top;strokeWidth=2;strokeColor=#0080F0;shadow=0;dashed=0;shape=mxgraph.ios7.icons.link;" vertex="1" parent="1">
          <mxGeometry x="520" y="590" width="30" height="30" as="geometry" />
        </mxCell>
        <mxCell id="TeA0gqDEE4ePr5C79fon-27" value="" style="html=1;verticalLabelPosition=bottom;align=center;labelBackgroundColor=#ffffff;verticalAlign=top;strokeWidth=2;strokeColor=#0080F0;shadow=0;dashed=0;shape=mxgraph.ios7.icons.link;" vertex="1" parent="1">
          <mxGeometry x="520" y="590" width="30" height="30" as="geometry" />
        </mxCell>
        <UserObject label="" link="https://www.golem.de/news/auch-privatanwender-betroffen-botnetz-malware-infiziert-ueber-70-000-router-2307-175881.html" id="TeA0gqDEE4ePr5C79fon-28">
          <mxCell style="html=1;verticalLabelPosition=bottom;align=center;labelBackgroundColor=#ffffff;verticalAlign=top;strokeWidth=2;strokeColor=#0080F0;shadow=0;dashed=0;shape=mxgraph.ios7.icons.link;" vertex="1" parent="1">
            <mxGeometry x="-60" y="870" width="30" height="30" as="geometry" />
          </mxCell>
        </UserObject>
        <UserObject label="" link="https://github.com/GoktugOcal/time-series-adversarial-attacks/tree/main" id="TeA0gqDEE4ePr5C79fon-29">
          <mxCell style="html=1;verticalLabelPosition=bottom;align=center;labelBackgroundColor=#ffffff;verticalAlign=top;strokeWidth=2;strokeColor=#0080F0;shadow=0;dashed=0;shape=mxgraph.ios7.icons.link;" vertex="1" parent="1">
            <mxGeometry x="-60" y="900" width="30" height="30" as="geometry" />
          </mxCell>
        </UserObject>
        <UserObject label="" link="https://distill.pub/2021/gnn-intro/" id="TeA0gqDEE4ePr5C79fon-30">
          <mxCell style="html=1;verticalLabelPosition=bottom;align=center;labelBackgroundColor=#ffffff;verticalAlign=top;strokeWidth=2;strokeColor=#0080F0;shadow=0;dashed=0;shape=mxgraph.ios7.icons.link;" vertex="1" parent="1">
            <mxGeometry x="1260" y="560" width="30" height="30" as="geometry" />
          </mxCell>
        </UserObject>
        <mxCell id="TeA0gqDEE4ePr5C79fon-35" value="Additional" style="whiteSpace=wrap;html=1;rounded=1;arcSize=50;align=center;verticalAlign=middle;strokeWidth=1;autosize=1;spacing=4;treeFolding=1;treeMoving=1;newEdgeStyle={&quot;edgeStyle&quot;:&quot;entityRelationEdgeStyle&quot;,&quot;startArrow&quot;:&quot;none&quot;,&quot;endArrow&quot;:&quot;none&quot;,&quot;segment&quot;:10,&quot;curved&quot;:1,&quot;sourcePerimeterSpacing&quot;:0,&quot;targetPerimeterSpacing&quot;:0};fillColor=#f8cecc;strokeColor=#b85450;" vertex="1" parent="1">
          <mxGeometry x="210" y="850" width="100" height="50" as="geometry" />
        </mxCell>
        <mxCell id="TeA0gqDEE4ePr5C79fon-36" value="" style="edgeStyle=entityRelationEdgeStyle;startArrow=none;endArrow=none;segment=10;curved=1;sourcePerimeterSpacing=0;targetPerimeterSpacing=0;rounded=0;exitX=0;exitY=1;exitDx=0;exitDy=0;" edge="1" target="TeA0gqDEE4ePr5C79fon-35" parent="1" source="TeA0gqDEE4ePr5C79fon-6">
          <mxGeometry relative="1" as="geometry">
            <mxPoint x="430" y="880" as="sourcePoint" />
          </mxGeometry>
        </mxCell>
        <mxCell id="TeA0gqDEE4ePr5C79fon-39" value="Branch" style="whiteSpace=wrap;html=1;shape=partialRectangle;top=0;left=0;bottom=1;right=0;points=[[0,1],[1,1]];fillColor=none;align=center;verticalAlign=bottom;routingCenterY=0.5;snapToPoint=1;recursiveResize=0;autosize=1;treeFolding=1;treeMoving=1;newEdgeStyle={&quot;edgeStyle&quot;:&quot;entityRelationEdgeStyle&quot;,&quot;startArrow&quot;:&quot;none&quot;,&quot;endArrow&quot;:&quot;none&quot;,&quot;segment&quot;:10,&quot;curved&quot;:1,&quot;sourcePerimeterSpacing&quot;:0,&quot;targetPerimeterSpacing&quot;:0};" vertex="1" parent="1">
          <mxGeometry x="470" y="570" width="80" height="30" as="geometry" />
        </mxCell>
        <mxCell id="TeA0gqDEE4ePr5C79fon-40" value="" style="edgeStyle=entityRelationEdgeStyle;startArrow=none;endArrow=none;segment=10;curved=1;sourcePerimeterSpacing=0;targetPerimeterSpacing=0;rounded=0;" edge="1" target="TeA0gqDEE4ePr5C79fon-39" parent="1">
          <mxGeometry relative="1" as="geometry">
            <mxPoint x="430" y="620" as="sourcePoint" />
          </mxGeometry>
        </mxCell>
        <mxCell id="TeA0gqDEE4ePr5C79fon-41" value="Branch" style="whiteSpace=wrap;html=1;shape=partialRectangle;top=0;left=0;bottom=1;right=0;points=[[0,1],[1,1]];fillColor=none;align=center;verticalAlign=bottom;routingCenterY=0.5;snapToPoint=1;recursiveResize=0;autosize=1;treeFolding=1;treeMoving=1;newEdgeStyle={&quot;edgeStyle&quot;:&quot;entityRelationEdgeStyle&quot;,&quot;startArrow&quot;:&quot;none&quot;,&quot;endArrow&quot;:&quot;none&quot;,&quot;segment&quot;:10,&quot;curved&quot;:1,&quot;sourcePerimeterSpacing&quot;:0,&quot;targetPerimeterSpacing&quot;:0};" vertex="1" parent="1">
          <mxGeometry x="470" y="570" width="80" height="30" as="geometry" />
        </mxCell>
        <mxCell id="TeA0gqDEE4ePr5C79fon-42" value="" style="edgeStyle=entityRelationEdgeStyle;startArrow=none;endArrow=none;segment=10;curved=1;sourcePerimeterSpacing=0;targetPerimeterSpacing=0;rounded=0;" edge="1" target="TeA0gqDEE4ePr5C79fon-41" parent="1">
          <mxGeometry relative="1" as="geometry">
            <mxPoint x="430" y="620" as="sourcePoint" />
          </mxGeometry>
        </mxCell>
        <mxCell id="TeA0gqDEE4ePr5C79fon-43" value="Branch" style="whiteSpace=wrap;html=1;shape=partialRectangle;top=0;left=0;bottom=1;right=0;points=[[0,1],[1,1]];fillColor=none;align=center;verticalAlign=bottom;routingCenterY=0.5;snapToPoint=1;recursiveResize=0;autosize=1;treeFolding=1;treeMoving=1;newEdgeStyle={&quot;edgeStyle&quot;:&quot;entityRelationEdgeStyle&quot;,&quot;startArrow&quot;:&quot;none&quot;,&quot;endArrow&quot;:&quot;none&quot;,&quot;segment&quot;:10,&quot;curved&quot;:1,&quot;sourcePerimeterSpacing&quot;:0,&quot;targetPerimeterSpacing&quot;:0};" vertex="1" parent="1">
          <mxGeometry x="470" y="570" width="80" height="30" as="geometry" />
        </mxCell>
        <mxCell id="TeA0gqDEE4ePr5C79fon-44" value="" style="edgeStyle=entityRelationEdgeStyle;startArrow=none;endArrow=none;segment=10;curved=1;sourcePerimeterSpacing=0;targetPerimeterSpacing=0;rounded=0;" edge="1" target="TeA0gqDEE4ePr5C79fon-43" parent="1">
          <mxGeometry relative="1" as="geometry">
            <mxPoint x="430" y="620" as="sourcePoint" />
          </mxGeometry>
        </mxCell>
        <mxCell id="TeA0gqDEE4ePr5C79fon-45" value="Branch" style="whiteSpace=wrap;html=1;shape=partialRectangle;top=0;left=0;bottom=1;right=0;points=[[0,1],[1,1]];fillColor=none;align=center;verticalAlign=bottom;routingCenterY=0.5;snapToPoint=1;recursiveResize=0;autosize=1;treeFolding=1;treeMoving=1;newEdgeStyle={&quot;edgeStyle&quot;:&quot;entityRelationEdgeStyle&quot;,&quot;startArrow&quot;:&quot;none&quot;,&quot;endArrow&quot;:&quot;none&quot;,&quot;segment&quot;:10,&quot;curved&quot;:1,&quot;sourcePerimeterSpacing&quot;:0,&quot;targetPerimeterSpacing&quot;:0};" vertex="1" parent="1">
          <mxGeometry x="470" y="570" width="80" height="30" as="geometry" />
        </mxCell>
        <mxCell id="TeA0gqDEE4ePr5C79fon-46" value="" style="edgeStyle=entityRelationEdgeStyle;startArrow=none;endArrow=none;segment=10;curved=1;sourcePerimeterSpacing=0;targetPerimeterSpacing=0;rounded=0;" edge="1" target="TeA0gqDEE4ePr5C79fon-45" parent="1">
          <mxGeometry relative="1" as="geometry">
            <mxPoint x="430" y="620" as="sourcePoint" />
          </mxGeometry>
        </mxCell>
        <mxCell id="TeA0gqDEE4ePr5C79fon-47" value="Branch" style="whiteSpace=wrap;html=1;shape=partialRectangle;top=0;left=0;bottom=1;right=0;points=[[0,1],[1,1]];fillColor=none;align=center;verticalAlign=bottom;routingCenterY=0.5;snapToPoint=1;recursiveResize=0;autosize=1;treeFolding=1;treeMoving=1;newEdgeStyle={&quot;edgeStyle&quot;:&quot;entityRelationEdgeStyle&quot;,&quot;startArrow&quot;:&quot;none&quot;,&quot;endArrow&quot;:&quot;none&quot;,&quot;segment&quot;:10,&quot;curved&quot;:1,&quot;sourcePerimeterSpacing&quot;:0,&quot;targetPerimeterSpacing&quot;:0};" vertex="1" parent="1">
          <mxGeometry x="470" y="570" width="80" height="30" as="geometry" />
        </mxCell>
        <mxCell id="TeA0gqDEE4ePr5C79fon-48" value="" style="edgeStyle=entityRelationEdgeStyle;startArrow=none;endArrow=none;segment=10;curved=1;sourcePerimeterSpacing=0;targetPerimeterSpacing=0;rounded=0;" edge="1" target="TeA0gqDEE4ePr5C79fon-47" parent="1">
          <mxGeometry relative="1" as="geometry">
            <mxPoint x="430" y="620" as="sourcePoint" />
          </mxGeometry>
        </mxCell>
        <mxCell id="TeA0gqDEE4ePr5C79fon-49" value="Branch" style="whiteSpace=wrap;html=1;shape=partialRectangle;top=0;left=0;bottom=1;right=0;points=[[0,1],[1,1]];fillColor=none;align=center;verticalAlign=bottom;routingCenterY=0.5;snapToPoint=1;recursiveResize=0;autosize=1;treeFolding=1;treeMoving=1;newEdgeStyle={&quot;edgeStyle&quot;:&quot;entityRelationEdgeStyle&quot;,&quot;startArrow&quot;:&quot;none&quot;,&quot;endArrow&quot;:&quot;none&quot;,&quot;segment&quot;:10,&quot;curved&quot;:1,&quot;sourcePerimeterSpacing&quot;:0,&quot;targetPerimeterSpacing&quot;:0};" vertex="1" parent="1">
          <mxGeometry x="470" y="570" width="80" height="30" as="geometry" />
        </mxCell>
        <mxCell id="TeA0gqDEE4ePr5C79fon-50" value="" style="edgeStyle=entityRelationEdgeStyle;startArrow=none;endArrow=none;segment=10;curved=1;sourcePerimeterSpacing=0;targetPerimeterSpacing=0;rounded=0;" edge="1" target="TeA0gqDEE4ePr5C79fon-49" parent="1">
          <mxGeometry relative="1" as="geometry">
            <mxPoint x="430" y="620" as="sourcePoint" />
          </mxGeometry>
        </mxCell>
        <mxCell id="TeA0gqDEE4ePr5C79fon-51" value="Branch" style="whiteSpace=wrap;html=1;shape=partialRectangle;top=0;left=0;bottom=1;right=0;points=[[0,1],[1,1]];fillColor=none;align=center;verticalAlign=bottom;routingCenterY=0.5;snapToPoint=1;recursiveResize=0;autosize=1;treeFolding=1;treeMoving=1;newEdgeStyle={&quot;edgeStyle&quot;:&quot;entityRelationEdgeStyle&quot;,&quot;startArrow&quot;:&quot;none&quot;,&quot;endArrow&quot;:&quot;none&quot;,&quot;segment&quot;:10,&quot;curved&quot;:1,&quot;sourcePerimeterSpacing&quot;:0,&quot;targetPerimeterSpacing&quot;:0};" vertex="1" parent="1">
          <mxGeometry x="470" y="570" width="80" height="30" as="geometry" />
        </mxCell>
        <mxCell id="TeA0gqDEE4ePr5C79fon-52" value="" style="edgeStyle=entityRelationEdgeStyle;startArrow=none;endArrow=none;segment=10;curved=1;sourcePerimeterSpacing=0;targetPerimeterSpacing=0;rounded=0;" edge="1" target="TeA0gqDEE4ePr5C79fon-51" parent="1">
          <mxGeometry relative="1" as="geometry">
            <mxPoint x="430" y="620" as="sourcePoint" />
          </mxGeometry>
        </mxCell>
        <mxCell id="TeA0gqDEE4ePr5C79fon-53" value="Branch" style="whiteSpace=wrap;html=1;shape=partialRectangle;top=0;left=0;bottom=1;right=0;points=[[0,1],[1,1]];fillColor=none;align=center;verticalAlign=bottom;routingCenterY=0.5;snapToPoint=1;recursiveResize=0;autosize=1;treeFolding=1;treeMoving=1;newEdgeStyle={&quot;edgeStyle&quot;:&quot;entityRelationEdgeStyle&quot;,&quot;startArrow&quot;:&quot;none&quot;,&quot;endArrow&quot;:&quot;none&quot;,&quot;segment&quot;:10,&quot;curved&quot;:1,&quot;sourcePerimeterSpacing&quot;:0,&quot;targetPerimeterSpacing&quot;:0};" vertex="1" parent="1">
          <mxGeometry x="470" y="570" width="80" height="30" as="geometry" />
        </mxCell>
        <mxCell id="TeA0gqDEE4ePr5C79fon-54" value="" style="edgeStyle=entityRelationEdgeStyle;startArrow=none;endArrow=none;segment=10;curved=1;sourcePerimeterSpacing=0;targetPerimeterSpacing=0;rounded=0;" edge="1" target="TeA0gqDEE4ePr5C79fon-53" parent="1">
          <mxGeometry relative="1" as="geometry">
            <mxPoint x="430" y="620" as="sourcePoint" />
          </mxGeometry>
        </mxCell>
        <mxCell id="TeA0gqDEE4ePr5C79fon-55" value="Branch" style="whiteSpace=wrap;html=1;shape=partialRectangle;top=0;left=0;bottom=1;right=0;points=[[0,1],[1,1]];fillColor=none;align=center;verticalAlign=bottom;routingCenterY=0.5;snapToPoint=1;recursiveResize=0;autosize=1;treeFolding=1;treeMoving=1;newEdgeStyle={&quot;edgeStyle&quot;:&quot;entityRelationEdgeStyle&quot;,&quot;startArrow&quot;:&quot;none&quot;,&quot;endArrow&quot;:&quot;none&quot;,&quot;segment&quot;:10,&quot;curved&quot;:1,&quot;sourcePerimeterSpacing&quot;:0,&quot;targetPerimeterSpacing&quot;:0};" vertex="1" parent="1">
          <mxGeometry x="470" y="570" width="80" height="30" as="geometry" />
        </mxCell>
        <mxCell id="TeA0gqDEE4ePr5C79fon-56" value="" style="edgeStyle=entityRelationEdgeStyle;startArrow=none;endArrow=none;segment=10;curved=1;sourcePerimeterSpacing=0;targetPerimeterSpacing=0;rounded=0;" edge="1" target="TeA0gqDEE4ePr5C79fon-55" parent="1">
          <mxGeometry relative="1" as="geometry">
            <mxPoint x="430" y="620" as="sourcePoint" />
          </mxGeometry>
        </mxCell>
        <mxCell id="TeA0gqDEE4ePr5C79fon-57" value="Time-Series-Adversarial-Attacks" style="whiteSpace=wrap;html=1;shape=partialRectangle;top=0;left=0;bottom=1;right=0;points=[[0,1],[1,1]];fillColor=none;align=center;verticalAlign=bottom;routingCenterY=0.5;snapToPoint=1;recursiveResize=0;autosize=1;treeFolding=1;treeMoving=1;newEdgeStyle={&quot;edgeStyle&quot;:&quot;entityRelationEdgeStyle&quot;,&quot;startArrow&quot;:&quot;none&quot;,&quot;endArrow&quot;:&quot;none&quot;,&quot;segment&quot;:10,&quot;curved&quot;:1,&quot;sourcePerimeterSpacing&quot;:0,&quot;targetPerimeterSpacing&quot;:0};" vertex="1" parent="1">
          <mxGeometry x="-45" y="900" width="210" height="30" as="geometry" />
        </mxCell>
        <mxCell id="TeA0gqDEE4ePr5C79fon-58" value="" style="edgeStyle=entityRelationEdgeStyle;startArrow=none;endArrow=none;segment=10;curved=1;sourcePerimeterSpacing=0;targetPerimeterSpacing=0;rounded=0;exitX=0;exitY=0.5;exitDx=0;exitDy=0;" edge="1" target="TeA0gqDEE4ePr5C79fon-57" parent="1" source="TeA0gqDEE4ePr5C79fon-35">
          <mxGeometry relative="1" as="geometry">
            <mxPoint x="430" y="620" as="sourcePoint" />
            <Array as="points">
              <mxPoint x="180" y="850" />
            </Array>
          </mxGeometry>
        </mxCell>
        <mxCell id="TeA0gqDEE4ePr5C79fon-60" value="Bot-Netz infiziert über 70k Router" style="whiteSpace=wrap;html=1;shape=partialRectangle;top=0;left=0;bottom=1;right=0;points=[[0,1],[1,1]];fillColor=none;align=center;verticalAlign=bottom;routingCenterY=0.5;snapToPoint=1;recursiveResize=0;autosize=1;treeFolding=1;treeMoving=1;newEdgeStyle={&quot;edgeStyle&quot;:&quot;entityRelationEdgeStyle&quot;,&quot;startArrow&quot;:&quot;none&quot;,&quot;endArrow&quot;:&quot;none&quot;,&quot;segment&quot;:10,&quot;curved&quot;:1,&quot;sourcePerimeterSpacing&quot;:0,&quot;targetPerimeterSpacing&quot;:0};" vertex="1" parent="1">
          <mxGeometry x="-50" y="870" width="210" height="30" as="geometry" />
        </mxCell>
        <mxCell id="TeA0gqDEE4ePr5C79fon-61" value="" style="edgeStyle=entityRelationEdgeStyle;startArrow=none;endArrow=none;segment=10;curved=1;sourcePerimeterSpacing=0;targetPerimeterSpacing=0;rounded=0;exitX=-0.06;exitY=0.574;exitDx=0;exitDy=0;exitPerimeter=0;" edge="1" target="TeA0gqDEE4ePr5C79fon-60" parent="1" source="TeA0gqDEE4ePr5C79fon-35">
          <mxGeometry relative="1" as="geometry">
            <mxPoint x="430" y="620" as="sourcePoint" />
          </mxGeometry>
        </mxCell>
      </root>
    </mxGraphModel>
  </diagram>
</mxfile>
